#!OML:ASF F:\VICON\USERDATA\INSTALL\rory3\rory3.ASF
:FULLY-SPECIFIED
:DEGREES
1154
root 10.4161 18.0962 -7.01801 188.028 229.589 -182.12
lowerback 12.2078 6.90622 5.44381
upperback 1.6792 9.70696 -2.35371
thorax -3.68111 4.72767 -6.86866
lowerneck -16.5047 11.1684 -6.52583
upperneck 47.3204 18.9082 3.08362
head 20.5525 6.26847 6.43769
rclavicle 2.78299e-015 -1.49089e-015
rhumerus -28.7822 -3.85556 -82.6058
rradius 45.1713
rwrist 4.83179
rhand -14.735 8.39221
rfingers 7.12502
rthumb 11.4203 -21.2768
lclavicle 2.78299e-015 -1.49089e-015
lhumerus -39.1661 10.9611 73.5568
lradius 38.9258
lwrist -2.72306
lhand -16.9668 27.1266
lfingers 7.12502
lthumb 9.26739 56.903
rfemur -7.1378 -13.0556 21.2369
rtibia 44.4576
rfoot -11.3525 -12.615
rtoes 7.57785
lfemur -15.8566 -7.60894 -20.9368
ltibia 21.922
lfoot 172.385 -181.519
ltoes -2.24612
1155
root 10.4914 18.0943 -7.06526 188.577 230.279 -182.723
lowerback 12.222 6.95742 5.69086
upperback 1.64802 9.81665 -2.18917
thorax -3.69365 4.77737 -6.84619
lowerneck -16.5985 11.1224 -6.78507
upperneck 47.2067 18.9189 3.06903
head 20.4624 6.23624 6.46137
rclavicle -7.50909e-014 2.11706e-014
rhumerus -28.759 -3.60665 -82.5247
rradius 45.373
rwrist 4.59181
rhand -14.7009 8.39877
rfingers 7.12502
rthumb 11.4532 -21.2684
lclavicle -7.50909e-014 2.11706e-014
lhumerus -39.1236 11.1454 73.6789
lradius 38.9301
lwrist -3.06435
lhand -17.2458 26.7746
lfingers 7.12502
lthumb 8.99812 56.5627
rfemur -6.3151 -13.3412 21.5916
rtibia 42.9342
rfoot -11.3283 -12.3264
rtoes 8.19908
lfemur -16.5326 -7.45233 -20.5448
ltibia 22.6069
lfoot 172.402 -180.925
ltoes -1.22207
1156
root 10.5648 18.0913 -7.11169 188.978 231.028 -183.187
lowerback 12.2698 6.96841 5.86712
upperback 1.56976 9.86068 -2.16723
thorax -3.77019 4.79125 -6.93733
lowerneck -16.4844 11.1466 -6.70067
upperneck 47.0236 18.8912 2.99422
head 20.3286 6.25125 6.37312
rclavicle -1.57785e-014 -1.80894e-014
rhumerus -28.7669 -3.50261 -82.7064
rradius 45.4531
rwrist 4.57983
rhand -14.5751 8.4906
rfingers 7.12502
rthumb 11.5745 -21.1698
lclavicle -1.57785e-014 -1.80894e-014
lhumerus -39.2025 11.164 73.5727
lradius 38.9367
lwrist -3.18712
lhand -17.5602 26.2283
lfingers 7.12502
lthumb 8.69473 56.0292
rfemur -5.49124 -13.6109 21.8443
rtibia 41.3927
rfoot -11.3544 -12.3362
rtoes 9.94403
lfemur -17.1411 -7.46837 -20.2306
ltibia 23.2546
lfoot 172.513 -180.202
ltoes 0.650661
1157
root 10.6374 18.0893 -7.15818 189.197 231.82 -183.388
lowerback 12.2765 6.99663 5.86671
upperback 1.53289 9.896 -2.23396
thorax -3.79534 4.80665 -7.01488
lowerneck -16.5483 11.1361 -6.55708
upperneck 46.9182 18.8005 2.97428
head 20.304 6.23859 6.32258
rclavicle 7.56251e-014 -3.78685e-014
rhumerus -28.6692 -3.40334 -82.977
rradius 45.5416
rwrist 4.60067
rhand -14.5032 9.16982
rfingers 7.12502
rthumb 11.6438 -20.4866
lclavicle 7.56251e-014 -3.78685e-014
lhumerus -39.0612 11.2125 73.4269
lradius 38.8045
lwrist -3.1581
lhand -17.9273 26.0501
lfingers 7.12502
lthumb 8.34046 55.8654
rfemur -4.69149 -13.8067 21.8816
rtibia 39.8667
rfoot -11.5165 -12.3752
rtoes 13.0435
lfemur -17.768 -7.40393 -20.0914
ltibia 23.8663
lfoot 172.6 -179.629
ltoes 2.55012
1158
root 10.7098 18.0825 -7.20854 189.524 232.58 -183.625
lowerback 12.186 7.0296 5.89404
upperback 1.53847 9.93605 -2.27992
thorax -3.7206 4.83049 -7.06661
lowerneck -16.7857 11.1178 -6.45691
upperneck 46.9057 18.7664 2.93751
head 20.39 6.21681 6.3116
rclavicle -2.99916e-014 2.18663e-014
rhumerus -28.4204 -3.21617 -83.2138
rradius 45.6447
rwrist 4.40227
rhand -14.7212 9.87042
rfingers 7.12502
rthumb 11.4336 -19.7978
lclavicle -2.99916e-014 2.18663e-014
lhumerus -38.7915 11.2657 73.4078
lradius 39.0323
lwrist -2.31297
lhand -17.3443 27.8053
lfingers 7.12502
lthumb 8.90316 57.5975
rfemur -4.07641 -14.1322 22.004
rtibia 38.3532
rfoot -11.3358 -12.6475
rtoes 13.7446
lfemur -18.4665 -7.21777 -19.9235
ltibia 24.4403
lfoot 172.651 -179.165
ltoes 3.97277
1159
root 10.7833 18.0723 -7.26012 189.793 233.356 -183.875
lowerback 12.1801 7.0684 5.94971
upperback 1.55449 9.99102 -2.32347
thorax -3.67411 4.85984 -7.14455
lowerneck -16.9298 11.0986 -6.35017
upperneck 46.8084 18.7389 2.82246
head 20.4072 6.20217 6.24428
rclavicle -1.07362e-013 1.82882e-014
rhumerus -28.1752 -3.07069 -83.4082
rradius 45.7376
rwrist 4.17941
rhand -14.6811 9.2026
rfingers 7.12502
rthumb 11.4724 -20.4635
lclavicle -1.07362e-013 1.82882e-014
lhumerus -38.5588 11.2992 73.3911
lradius 39.4971
lwrist -1.06742
lhand -16.1706 30.0636
lfingers 7.12502
lthumb 10.0356 59.8043
rfemur -3.47406 -14.5444 22.1652
rtibia 36.8499
rfoot -10.9279 -13.1083
rtoes 12.209
lfemur -19.052 -7.15391 -19.7619
ltibia 24.9593
lfoot 172.753 -178.55
ltoes 4.29349
1160
root 10.8571 18.0653 -7.30657 190.097 234.131 -184.188
lowerback 12.1802 7.10505 6.07706
upperback 1.54628 10.0558 -2.33344
thorax -3.64878 4.89163 -7.23013
lowerneck -16.8791 11.0572 -6.44264
upperneck 46.6391 18.6197 2.88386
head 20.253 6.17175 6.23517
rclavicle -1.50213e-013 -2.03754e-014
rhumerus -28.0562 -2.98097 -83.4838
rradius 45.8289
rwrist 4.10234
rhand -14.4423 8.5881
rfingers 7.12502
rthumb 11.7026 -21.065
lclavicle -1.50213e-013 -2.03754e-014
lhumerus -38.3396 11.3484 73.3755
lradius 39.4095
lwrist -0.630354
lhand -16.1449 29.6532
lfingers 7.12502
lthumb 10.0604 59.3928
rfemur -2.85633 -14.7443 22.3536
rtibia 35.3477
rfoot -10.9693 -13.6173
rtoes 12.4701
lfemur -19.582 -7.20686 -19.5581
ltibia 25.4496
lfoot 172.912 -177.807
ltoes 3.97262
1161
root 10.928 18.0578 -7.35272 190.416 234.874 -184.44
lowerback 12.097 7.11425 6.06773
upperback 1.51507 10.0657 -2.29174
thorax -3.64418 4.89615 -7.1726
lowerneck -16.8298 11.0483 -6.58992
upperneck 46.5557 18.592 2.93271
head 20.1489 6.15431 6.25323
rclavicle -1.9981e-014 -1.78161e-014
rhumerus -27.9574 -2.80313 -83.5311
rradius 45.9083
rwrist 4.14937
rhand -14.4747 8.53205
rfingers 7.12502
rthumb 11.6714 -21.1229
lclavicle -1.9981e-014 -1.78161e-014
lhumerus -38.3743 11.4305 73.4483
lradius 39.042
lwrist -1.3284
lhand -17.4675 27.3638
lfingers 7.12502
lthumb 8.78421 57.161
rfemur -2.36624 -15.1114 22.503
rtibia 33.8708
rfoot -11.3149 -14.1539
rtoes 11.9622
lfemur -20.1652 -7.30142 -19.376
ltibia 25.9391
lfoot 173.116 -177.044
ltoes 3.85577
1162
root 10.9969 18.0455 -7.40398 190.663 235.678 -184.642
lowerback 12.0142 7.14207 6.00863
upperback 1.55503 10.0871 -2.31679
thorax -3.55869 4.91286 -7.15186
lowerneck -16.9419 11.0033 -6.6223
upperneck 46.4414 18.5495 2.85007
head 20.1191 6.12072 6.21031
rclavicle -1.63066e-016 3.33741e-014
rhumerus -27.7427 -2.63136 -83.6943
rradius 45.9855
rwrist 4.18066
rhand -14.5716 8.44908
rfingers 7.12502
rthumb 11.5779 -21.2111
lclavicle -1.63066e-016 3.33741e-014
lhumerus -38.5324 11.3285 73.5418
lradius 39.0622
lwrist -2.2493
lhand -18.5742 26.3212
lfingers 7.12502
lthumb 7.71613 56.1604
rfemur -1.92337 -15.73 22.642
rtibia 32.4137
rfoot -11.7427 -14.7702
rtoes 8.10542
lfemur -20.7036 -7.17794 -19.247
ltibia 26.4286
lfoot 173.266 -176.449
ltoes 4.56178
1163
root 11.0689 18.0271 -7.45806 190.86 236.52 -184.806
lowerback 12.0124 7.18751 5.96484
upperback 1.57613 10.1356 -2.40396
thorax -3.51881 4.93995 -7.22125
lowerneck -17.0186 10.9525 -6.44566
upperneck 46.4164 18.4457 2.72786
head 20.1856 6.07814 6.11873
rclavicle -1.09158e-013 1.21259e-014
rhumerus -27.5047 -2.66426 -83.8886
rradius 45.978
rwrist 4.2658
rhand -14.4112 8.82938
rfingers 7.12502
rthumb 11.7326 -20.822
lclavicle -1.09158e-013 1.21259e-014
lhumerus -38.5458 11.223 73.5348
lradius 39.3005
lwrist -2.52717
lhand -18.555 26.7072
lfingers 7.12502
lthumb 7.73472 56.5457
rfemur -1.5227 -16.1732 22.7879
rtibia 31.0198
rfoot -12.5535 -15.3633
rtoes 4.66543
lfemur -21.2504 -6.80449 -19.169
ltibia 26.9073
lfoot 173.335 -176.061
ltoes 4.89359
1164
root 11.1406 18.0122 -7.51001 191.055 237.435 -184.992
lowerback 12.0784 7.2675 5.91061
upperback 1.54381 10.2353 -2.45969
thorax -3.5721 4.98624 -7.27357
lowerneck -16.9476 10.9264 -6.32293
upperneck 46.4026 18.3645 2.63938
head 20.1996 6.04908 6.03729
rclavicle 4.77083e-015 -2.05245e-014
rhumerus -27.3521 -2.777 -83.9739
rradius 45.8962
rwrist 4.35996
rhand -14.0787 9.43977
rfingers 7.12502
rthumb 12.0532 -20.1931
lclavicle 4.77083e-015 -2.05245e-014
lhumerus -38.4999 11.1444 73.5318
lradius 39.473
lwrist -2.51927
lhand -18.2442 26.9199
lfingers 7.12502
lthumb 8.03465 56.7472
rfemur -1.17088 -16.2315 22.9069
rtibia 29.7253
rfoot -13.7564 -15.7503
rtoes 4.67498
lfemur -21.7434 -6.45444 -19.081
ltibia 27.382
lfoot 173.406 -175.555
ltoes 4.94869
